<svg width="173" height="32" viewBox="0 0 173 32" fill="none" xmlns="http://www.w3.org/2000/svg">
<path d="M18.5263 5.96646C18.4772 4.50628 18.3396 3.36055 18.1175 2.53318C17.9014 1.70582 17.5299 1.11624 17.0072 0.768397C16.4923 0.418584 15.7652 0.200442 14.8376 0.123798C13.9021 0.0432232 12.7092 0.00195312 11.249 0.00195312H7.35C5.88982 0.00195312 4.69103 0.0451884 3.76147 0.123798C2.83388 0.200442 2.11263 0.418584 1.59184 0.768397C1.06516 1.11624 0.695695 1.70582 0.479519 2.53318C0.261377 3.36055 0.121845 4.50432 0.0746791 5.96646C0.0255481 7.43449 0 9.34667 0 11.6971V20.3107C0 22.6278 0.0255481 24.5321 0.0746791 26.0119C0.12381 27.4937 0.261377 28.6434 0.481484 29.4766C0.69766 30.2981 1.06713 30.8916 1.59381 31.2414C2.1146 31.5912 2.83584 31.8035 3.76343 31.884C4.69299 31.9666 5.88982 32.002 7.35196 32.002H11.251C12.7289 32.002 13.9336 31.9646 14.8533 31.884C15.773 31.8035 16.4943 31.5912 17.0092 31.2414C17.5319 30.8916 17.9033 30.2981 18.1195 29.4766C18.3416 28.6434 18.4791 27.4937 18.5283 26.0119C18.5774 24.5321 18.603 22.6278 18.603 20.3107V11.6971C18.603 9.34667 18.5774 7.43646 18.5283 5.96646H18.5263ZM9.91463 24.0329C9.91463 24.6637 9.81048 25.2356 9.6395 25.6542C9.48228 26.0257 9.272 26.2674 9.0401 26.3087V26.3204H8.96149V26.3087C8.7296 26.2674 8.51931 26.0257 8.36799 25.6542C8.19112 25.2376 8.08696 24.6637 8.08696 24.0329V9.06957C8.08696 8.43873 8.19112 7.86881 8.36799 7.45414C8.51931 7.07878 8.7296 6.83509 8.96149 6.78989V6.78596H9.0401V6.78989C9.272 6.83509 9.48228 7.07878 9.6395 7.45414C9.81048 7.86881 9.91463 8.43873 9.91463 9.06957V24.0329Z" fill="#1C1A1E"/>
<path d="M39.0024 13.7979C39.0024 13.7979 39.0515 7.43449 39.0024 5.96646C38.9532 4.50628 38.741 3.36055 38.5209 2.53318C38.2988 1.70582 37.9313 1.11624 37.4105 0.768397C36.8936 0.418584 36.1665 0.200442 35.2389 0.123798C34.3054 0.0432232 33.1125 0.00195312 31.6504 0.00195312H20.4033V32.002H29.0484V16.9069C29.5751 16.9069 30.0487 17.1113 30.3985 17.4474C30.7424 17.7775 30.9527 18.2374 30.9527 18.7444V32.002H39.0004V26.8687C39.0004 26.8687 38.9159 21.0791 36.9958 19.222C36.5085 18.7543 35.9896 18.318 35.404 17.978C35.1917 17.8562 34.7201 17.7323 34.5786 17.5437L34.5727 17.5378C37.0292 17.4769 39.0004 16.166 39.0004 13.7999L39.0024 13.7979ZM30.9547 13.8726C30.9547 14.2283 30.7444 14.5428 30.4005 14.7727C30.0526 15.0046 29.5771 15.1461 29.0504 15.1461V3.28783C29.5771 3.28783 30.0507 3.4313 30.4005 3.66123C30.7444 3.89313 30.9547 4.2056 30.9547 4.55738V13.8726Z" fill="#1C1A1E"/>
<path d="M59.3525 5.96646C59.3033 4.50628 59.1677 3.36055 58.9457 2.53318C58.7256 1.70582 58.362 1.11624 57.8353 0.768397C57.3145 0.418584 56.5933 0.200442 55.6637 0.123798C54.7342 0.0432232 53.5373 0.00195312 52.0772 0.00195312H40.8281V32.002H52.0772C53.555 32.002 54.7597 31.9646 55.6775 31.884C56.5952 31.8035 57.3145 31.5912 57.8333 31.2414C58.36 30.8916 58.7236 30.2981 58.9437 29.4766C59.1658 28.6434 59.3014 27.4937 59.3505 26.0119C59.4016 24.5321 59.4252 22.6278 59.4252 20.3107V11.6971C59.4252 9.34667 59.4016 7.43646 59.3505 5.96646H59.3525ZM51.3815 24.0329C51.3815 24.6637 51.1692 25.2356 50.8273 25.6542C50.4833 26.0669 50.0019 26.3224 49.4752 26.3224V6.784C50.0019 6.784 50.4814 7.04144 50.8273 7.45414C51.1692 7.86881 51.3815 8.43873 51.3815 9.06957V24.0329Z" fill="#1C1A1E"/>
<path d="M72.4402 8.31886H79.8275V0H68.5785C67.1203 0 65.9254 0.0432353 64.9978 0.121845C64.0624 0.198489 63.3372 0.416631 62.8204 0.766444C62.2996 1.11429 61.9262 1.70386 61.71 2.53123C61.4899 3.35859 61.3523 4.50433 61.3032 5.9645C61.2541 7.43254 61.2285 9.34472 61.2285 11.6951V32H79.8275V17.8247H70.53V15.9833H79.8275V10.1524H70.53C70.53 9.64736 70.7403 9.1875 71.0881 8.85734C71.432 8.52717 71.9096 8.31689 72.4402 8.31689V8.31886Z" fill="#1C1A1E"/>
<path d="M163.453 8.85755C163.109 9.18771 162.893 9.64758 162.893 10.1526H172.193V15.9835H162.893V17.8249H172.193V32.0002H154.089V29.2685V28.791L154.081 18.3359L154.075 11.7209V11.7071L154.071 7.23426V7.2264C154.075 6.68399 154.089 6.23985 154.089 5.96668C154.089 2.09516 155.577 0.124023 159.311 0.124023H172.195V8.31907H164.805C164.532 8.31907 164.273 8.3741 164.041 8.47433C163.819 8.56669 163.62 8.6964 163.455 8.85755H163.453Z" fill="#1C1A1E"/>
<path d="M100.227 15.5313C100.227 15.6905 100.223 15.8477 100.221 16.001C100.221 16.1543 100.225 16.3115 100.227 16.4707C100.233 16.8185 100.233 17.188 100.233 17.5673V32.002H92.2205L92.2402 8.2206C92.2441 7.9494 91.969 7.76466 91.7194 7.86882C89.9035 9.16588 88.6143 16.3449 88.5534 20.4208C88.5455 20.9278 88.6006 21.4565 88.8442 21.8987C89.1449 22.4823 90.2219 23.8148 90.2219 23.8148L90.0254 32H81.6338V0H89.7424V5.97236C89.7424 5.97236 89.874 5.30811 90.2808 4.42572C90.4341 4.09163 90.6267 3.72216 90.8665 3.34877C91.7705 1.92987 93.3466 0.402874 95.9958 0.0962968C96.3122 0.0589572 96.6443 0.0393048 96.9902 0.0393048C99.5941 0.0393048 100.107 1.08874 100.207 2.33864C100.233 2.64521 100.233 2.96358 100.233 3.28195V14.4347C100.233 14.6666 100.233 14.8926 100.233 15.1127C100.233 15.2542 100.233 15.3957 100.229 15.5313H100.227Z" fill="#1C1A1E"/>
<path d="M109.446 0C107.987 0 106.793 0.0432353 105.863 0.121845C104.93 0.198489 104.208 0.416631 103.688 0.766444C103.165 1.11429 102.797 1.70386 102.577 2.53123C102.355 3.35859 102.223 4.50433 102.168 5.9645C102.149 6.65627 102.129 7.43647 102.119 8.31689C102.109 8.88288 102.106 9.49997 102.1 10.1524C102.094 10.6457 102.094 11.1606 102.094 11.6951V32H110.741V18.7425C110.741 18.2296 110.951 17.7717 111.299 17.4415C111.643 17.1113 112.118 16.9011 112.651 16.9011V32H120.697V0H109.444H109.446ZM112.653 15.1481C112.12 15.1481 111.647 15.0066 111.301 14.7747C110.953 14.5447 110.743 14.2303 110.743 13.8746V4.55739C110.743 4.20561 110.953 3.88724 111.301 3.66124C111.645 3.43131 112.12 3.28195 112.653 3.28195V15.1481Z" fill="#1C1A1E"/>
<path d="M122.503 0V32H131.504V0H122.503Z" fill="#1C1A1E"/>
<path d="M151.905 13.7979C151.905 13.7979 151.954 7.43449 151.905 5.96646C151.856 4.50628 151.643 3.36055 151.423 2.53318C151.201 1.70582 150.834 1.11624 150.313 0.768397C149.796 0.418584 149.069 0.200442 148.141 0.123798C147.208 0.0432232 146.015 0.00195312 144.553 0.00195312H133.306V32.002H141.951V16.9069C142.477 16.9069 142.951 17.1113 143.301 17.4474C143.645 17.7775 143.855 18.2374 143.855 18.7444V32.002H151.903V26.8687C151.903 26.8687 151.818 21.0791 149.898 19.222C149.411 18.7543 148.892 18.318 148.306 17.978C148.094 17.8562 147.622 17.7323 147.481 17.5437L147.475 17.5378C149.932 17.4769 151.903 16.166 151.903 13.7999L151.905 13.7979ZM143.857 13.8726C143.857 14.2283 143.647 14.5428 143.303 14.7727C142.955 15.0046 142.479 15.1461 141.953 15.1461V3.28783C142.479 3.28783 142.953 3.4313 143.303 3.66123C143.647 3.89313 143.857 4.2056 143.857 4.55738V13.8726Z" fill="#1C1A1E"/>
</svg>
