<svg width="140" height="140" viewBox="0 0 140 140" fill="none" xmlns="http://www.w3.org/2000/svg">
<path d="M70 0.5C108.384 0.5 139.5 31.6162 139.5 70C139.5 108.384 108.384 139.5 70 139.5C31.6162 139.5 0.5 108.384 0.5 70C0.5 31.6162 31.6162 0.5 70 0.5Z" fill="#EFEDF0"/>
<path d="M70 0.5C108.384 0.5 139.5 31.6162 139.5 70C139.5 108.384 108.384 139.5 70 139.5C31.6162 139.5 0.5 108.384 0.5 70C0.5 31.6162 31.6162 0.5 70 0.5Z" stroke="#E8E6EA"/>
<path d="M93.3337 96.25C93.3337 92.1796 93.3337 90.1444 92.8313 88.4883C91.7002 84.7597 88.7823 81.8418 85.0537 80.7107C83.3976 80.2083 81.3624 80.2083 77.292 80.2083H62.7087C58.6383 80.2083 56.6031 80.2083 54.947 80.7107C51.2183 81.8418 48.3004 84.7597 47.1694 88.4883C46.667 90.1444 46.667 92.1796 46.667 96.25M83.1253 56.875C83.1253 64.1237 77.2491 70 70.0003 70C62.7516 70 56.8753 64.1237 56.8753 56.875C56.8753 49.6263 62.7516 43.75 70.0003 43.75C77.2491 43.75 83.1253 49.6263 83.1253 56.875Z" stroke="#B5B0BA" stroke-width="2.67" stroke-linecap="round" stroke-linejoin="round"/>
</svg>
