<svg width="19" height="19" viewBox="0 0 19 19" fill="none" xmlns="http://www.w3.org/2000/svg">
<path d="M12.2796 14.1581C12.637 15.4917 11.8455 16.8626 10.5119 17.2199C9.1782 17.5773 7.80736 16.7858 7.45001 15.4522M0.955402 8.82351C0.630823 7.65836 0.968358 6.39866 1.83203 5.5519M9.3633 3.92979C9.61681 3.47371 9.70031 2.92246 9.55459 2.37863C9.2568 1.26724 8.11443 0.607694 7.00304 0.905489C5.89165 1.20328 5.23211 2.34565 5.5299 3.45704C5.67562 4.00087 6.02357 4.43651 6.47115 4.70474M16.1739 4.74575C15.8724 3.57441 14.9502 2.65225 13.7789 2.35076M13.8169 7.01682C13.5194 5.90671 12.7253 4.97841 11.6093 4.43613C10.4932 3.89385 9.14662 3.78202 7.86572 4.12524C6.58482 4.46845 5.47455 5.2386 4.77915 6.26626C4.08375 7.29391 3.86019 8.4949 4.15764 9.60501C4.64979 11.4417 4.55422 12.907 4.24343 14.0205C3.88921 15.2895 3.7121 15.9241 3.75994 16.0515C3.81469 16.1972 3.85429 16.2373 3.99948 16.2935C4.12639 16.3427 4.65953 16.1998 5.72582 15.9141L15.6134 13.2648C16.6797 12.979 17.2128 12.8362 17.2981 12.7301C17.3957 12.6088 17.41 12.5544 17.3845 12.4008C17.3623 12.2665 16.8916 11.8055 15.9503 10.8836C15.1245 10.0747 14.309 8.85353 13.8169 7.01682Z" stroke="#B5B0BA" stroke-width="1.66667" stroke-linecap="round" stroke-linejoin="round"/>
</svg>
