<svg width="17" height="22" viewBox="0 0 17 22" fill="none" xmlns="http://www.w3.org/2000/svg">
<path d="M6.5 1.00008V5.6605C6.5 5.87768 6.5 5.98626 6.4669 6.07264C6.43568 6.15413 6.39435 6.21328 6.32858 6.27063C6.25885 6.33142 6.14593 6.37279 5.92008 6.45553C3.04892 7.50734 1 10.2644 1 13.5C1 17.6421 4.35786 21 8.5 21C12.6421 21 16 17.6421 16 13.5C16 10.2644 13.9511 7.50734 11.0799 6.45553C10.8541 6.37279 10.7411 6.33142 10.6714 6.27063C10.6056 6.21328 10.5643 6.15413 10.5331 6.07264C10.5 5.98626 10.5 5.87768 10.5 5.6605V1.00008M5 1H12" stroke="#696170" stroke-width="2" stroke-linecap="round" stroke-linejoin="round"/>
</svg>
