<svg width="20" height="20" viewBox="0 0 20 20" fill="none" xmlns="http://www.w3.org/2000/svg">
<path fill-rule="evenodd" clip-rule="evenodd" d="M18.7793 1.2207C17.1517 -0.4069 14.5157 -0.4069 12.8969 1.2207L11.9682 2.14949L11.9505 2.1318L10.314 3.76824V3.78594L1.24724 12.8704C0.451128 13.6665 0 14.7457 0 15.8691V18.8412C0 19.4781 0.521893 20 1.15878 20H4.13092C5.25431 20 6.34233 19.5489 7.13843 18.7528L18.7881 7.10305C20.4157 5.47545 20.4157 2.83945 18.7881 1.2207H18.7793ZM11.9682 5.42238L2.88368 14.5069C2.52101 14.8695 2.31756 15.356 2.31756 15.8691V17.6824H4.13092C4.64396 17.6824 5.13932 17.479 5.49314 17.1163L14.5776 8.03184L11.9682 5.42238ZM16.2141 6.3954L17.1429 5.46661C17.877 4.75896 17.9124 3.59133 17.2048 2.85714C16.4971 2.12295 15.3295 2.08757 14.5953 2.79522C14.5776 2.81291 14.5511 2.83945 14.5334 2.85714L13.6134 3.78594L16.2229 6.3954H16.2141Z" fill="#0A0B0A"/>
</svg>
