<svg width="17" height="17" viewBox="0 0 17 17" fill="none" xmlns="http://www.w3.org/2000/svg">
<path d="M10.833 15.8334V11.3334C10.833 10.8667 10.833 10.6333 10.7422 10.455C10.6623 10.2982 10.5348 10.1708 10.378 10.0909C10.1997 10 9.96638 10 9.49967 10H7.16634C6.69963 10 6.46628 10 6.28802 10.0909C6.13121 10.1708 6.00373 10.2982 5.92384 10.455C5.83301 10.6333 5.83301 10.8667 5.83301 11.3334V15.8334M0.833008 4.16671C0.833008 5.54742 1.9523 6.66671 3.33301 6.66671C4.71372 6.66671 5.83301 5.54742 5.83301 4.16671C5.83301 5.54742 6.9523 6.66671 8.33301 6.66671C9.71372 6.66671 10.833 5.54742 10.833 4.16671C10.833 5.54742 11.9523 6.66671 13.333 6.66671C14.7137 6.66671 15.833 5.54742 15.833 4.16671M3.49967 15.8334H13.1663C14.0998 15.8334 14.5665 15.8334 14.923 15.6517C15.2366 15.4919 15.4916 15.237 15.6514 14.9234C15.833 14.5668 15.833 14.1001 15.833 13.1667V3.50004C15.833 2.56662 15.833 2.09991 15.6514 1.74339C15.4916 1.42979 15.2366 1.17482 14.923 1.01503C14.5665 0.833374 14.0998 0.833374 13.1663 0.833374H3.49967C2.56625 0.833374 2.09954 0.833374 1.74302 1.01503C1.42942 1.17482 1.17445 1.42979 1.01466 1.74339C0.833008 2.09991 0.833008 2.56662 0.833008 3.50004V13.1667C0.833008 14.1001 0.833008 14.5668 1.01466 14.9234C1.17445 15.237 1.42942 15.4919 1.74302 15.6517C2.09954 15.8334 2.56625 15.8334 3.49967 15.8334Z" stroke="#B5B0BA" stroke-width="1.66667" stroke-linecap="round" stroke-linejoin="round"/>
</svg>
