<svg width="26" height="26" viewBox="0 0 26 26" fill="none" xmlns="http://www.w3.org/2000/svg">
<path d="M17.001 25.0012V17.8012C17.001 17.0545 17.001 16.6811 16.8557 16.3959C16.7278 16.145 16.5238 15.941 16.273 15.8132C15.9878 15.6679 15.6144 15.6679 14.8676 15.6679H11.1343C10.3876 15.6679 10.0142 15.6679 9.72899 15.8132C9.47811 15.941 9.27413 16.145 9.1463 16.3959C9.00098 16.6811 9.00098 17.0545 9.00098 17.8012V25.0012M1.00098 6.33455C1.00098 8.54369 2.79184 10.3346 5.00098 10.3346C7.21012 10.3346 9.00098 8.54369 9.00098 6.33455C9.00098 8.54369 10.7918 10.3346 13.001 10.3346C15.2101 10.3346 17.001 8.54369 17.001 6.33455C17.001 8.54369 18.7918 10.3346 21.001 10.3346C23.2101 10.3346 25.001 8.54369 25.001 6.33455M5.26764 25.0012H20.7343C22.2278 25.0012 22.9745 25.0012 23.545 24.7106C24.0467 24.4549 24.4547 24.047 24.7103 23.5452C25.001 22.9748 25.001 22.228 25.001 20.7346V5.26789C25.001 3.77441 25.001 3.02768 24.7103 2.45725C24.4547 1.95548 24.0467 1.54753 23.545 1.29187C22.9745 1.00122 22.2278 1.00122 20.7343 1.00122H5.26764C3.77417 1.00122 3.02743 1.00122 2.457 1.29187C1.95524 1.54753 1.54729 1.95548 1.29163 2.45725C1.00098 3.02768 1.00098 3.77441 1.00098 5.26789V20.7346C1.00098 22.228 1.00098 22.9748 1.29163 23.5452C1.54729 24.047 1.95524 24.4549 2.457 24.7106C3.02743 25.0012 3.77417 25.0012 5.26764 25.0012Z" stroke="#B5B0BA" stroke-width="2.0025" stroke-linecap="round" stroke-linejoin="round"/>
</svg>
