<svg width="17" height="19" viewBox="0 0 17 19" fill="none" xmlns="http://www.w3.org/2000/svg">
<path d="M15.8335 7.49998H0.833496M11.6668 0.833313V4.16665M5.00016 0.833313V4.16665M7.0835 10.8333L8.3335 9.99998V14.1666M7.29183 14.1666H9.37516M4.8335 17.5H11.8335C13.2336 17.5 13.9337 17.5 14.4685 17.2275C14.9389 16.9878 15.3213 16.6054 15.561 16.135C15.8335 15.6002 15.8335 14.9001 15.8335 13.5V6.49998C15.8335 5.09985 15.8335 4.39978 15.561 3.865C15.3213 3.3946 14.9389 3.01215 14.4685 2.77246C13.9337 2.49998 13.2336 2.49998 11.8335 2.49998H4.8335C3.43336 2.49998 2.7333 2.49998 2.19852 2.77246C1.72811 3.01215 1.34566 3.3946 1.10598 3.865C0.833496 4.39978 0.833496 5.09985 0.833496 6.49998V13.5C0.833496 14.9001 0.833496 15.6002 1.10598 16.135C1.34566 16.6054 1.72811 16.9878 2.19852 17.2275C2.7333 17.5 3.43336 17.5 4.8335 17.5Z" stroke="#B5B0BA" stroke-width="1.66667" stroke-linecap="round" stroke-linejoin="round"/>
</svg>
