<svg width="25" height="21" viewBox="0 0 25 21" fill="none" xmlns="http://www.w3.org/2000/svg">
<path d="M14.75 4.25H17.4768C17.7622 4.25 17.9048 4.25 18.0391 4.28223C18.1581 4.31081 18.2719 4.35795 18.3763 4.42192C18.4941 4.49407 18.595 4.59496 18.7967 4.79673L23.5366 9.5366C23.7384 9.73838 23.8393 9.83926 23.9114 9.957C23.9754 10.0614 24.0225 10.1752 24.0511 10.2942C24.0833 10.4285 24.0833 10.5712 24.0833 10.8565V14.1667C24.0833 14.7103 24.0833 14.9821 23.9945 15.1965C23.8761 15.4823 23.649 15.7094 23.3631 15.8279C23.1487 15.9167 22.8769 15.9167 22.3333 15.9167M16.5 15.9167H14.75M14.75 15.9167V4.48333C14.75 3.17654 14.75 2.52315 14.4957 2.02402C14.272 1.58498 13.915 1.22802 13.476 1.00432C12.9769 0.75 12.3235 0.75 11.0167 0.75H4.48333C3.17654 0.75 2.52315 0.75 2.02402 1.00432C1.58498 1.22802 1.22802 1.58498 1.00432 2.02402C0.75 2.52315 0.75 3.17654 0.75 4.48333V13.5833C0.75 14.872 1.79467 15.9167 3.08333 15.9167M14.75 15.9167H10.0833M10.0833 15.9167C10.0833 17.8497 8.51633 19.4167 6.58333 19.4167C4.65034 19.4167 3.08333 17.8497 3.08333 15.9167M10.0833 15.9167C10.0833 13.9837 8.51633 12.4167 6.58333 12.4167C4.65034 12.4167 3.08333 13.9837 3.08333 15.9167M22.3333 16.5C22.3333 18.1108 21.0275 19.4167 19.4167 19.4167C17.8058 19.4167 16.5 18.1108 16.5 16.5C16.5 14.8892 17.8058 13.5833 19.4167 13.5833C21.0275 13.5833 22.3333 14.8892 22.3333 16.5Z" stroke="black" stroke-width="1.5" stroke-linecap="round" stroke-linejoin="round"/>
</svg>
