<svg width="24" height="27" viewBox="0 0 24 27" fill="none" xmlns="http://www.w3.org/2000/svg">
<path d="M22.6684 25.335C22.6684 23.4742 22.6684 22.5438 22.4388 21.7868C21.9217 20.0822 20.5878 18.7483 18.8833 18.2313C18.1262 18.0016 17.1958 18.0016 15.3351 18.0016H8.66842C6.80767 18.0016 5.87729 18.0016 5.12023 18.2313C3.41569 18.7483 2.0818 20.0822 1.56474 21.7868C1.33508 22.5438 1.33508 23.4742 1.33508 25.335M18.0018 7.33496C18.0018 10.6487 15.3155 13.335 12.0018 13.335C8.68804 13.335 6.00175 10.6487 6.00175 7.33496C6.00175 4.02125 8.68804 1.33496 12.0018 1.33496C15.3155 1.33496 18.0018 4.02125 18.0018 7.33496Z" stroke="#B5B0BA" stroke-width="2.67" stroke-linecap="round" stroke-linejoin="round"/>
</svg>
