<svg width="19" height="19" viewBox="0 0 19 19" fill="none" xmlns="http://www.w3.org/2000/svg">
<path d="M8.33301 2.60078H4.83301C3.43288 2.60078 2.73281 2.60078 2.19803 2.87326C1.72763 3.11294 1.34517 3.49539 1.10549 3.9658C0.833008 4.50058 0.833008 5.20064 0.833008 6.60078V13.6008C0.833008 15.0009 0.833008 15.701 1.10549 16.2358C1.34517 16.7062 1.72763 17.0886 2.19803 17.3283C2.73281 17.6008 3.43288 17.6008 4.83301 17.6008H11.833C13.2331 17.6008 13.9332 17.6008 14.468 17.3283C14.9384 17.0886 15.3208 16.7062 15.5605 16.2358C15.833 15.701 15.833 15.0009 15.833 13.6008V10.1008M5.83299 12.6008H7.22844C7.63609 12.6008 7.83992 12.6008 8.03173 12.5547C8.20179 12.5139 8.36436 12.4466 8.51348 12.3552C8.68168 12.2521 8.8258 12.108 9.11406 11.8197L17.083 3.85078C17.7734 3.16042 17.7734 2.04113 17.083 1.35078C16.3927 0.660419 15.2734 0.660419 14.583 1.35077L6.61404 9.31973C6.32578 9.60798 6.18166 9.75211 6.07859 9.9203C5.9872 10.0694 5.91986 10.232 5.87904 10.4021C5.83299 10.5939 5.83299 10.7977 5.83299 11.2053V12.6008Z" stroke="#B5B0BA" stroke-width="1.66667" stroke-linecap="round" stroke-linejoin="round"/>
</svg>
