<svg width="17" height="17" viewBox="0 0 17 17" fill="none" xmlns="http://www.w3.org/2000/svg">
<path d="M4.16674 7.49998C3.39176 7.49998 3.00427 7.49998 2.68636 7.58516C1.82363 7.81633 1.14976 8.4902 0.91859 9.35293C0.833405 9.67085 0.833405 10.0583 0.833405 10.8333V11.8333C0.833405 13.2334 0.833405 13.9335 1.10589 14.4683C1.34557 14.9387 1.72802 15.3211 2.19843 15.5608C2.73321 15.8333 3.43327 15.8333 4.8334 15.8333H11.8334C13.2335 15.8333 13.9336 15.8333 14.4684 15.5608C14.9388 15.3211 15.3212 14.9387 15.5609 14.4683C15.8334 13.9335 15.8334 13.2334 15.8334 11.8333V10.8333C15.8334 10.0583 15.8334 9.67085 15.7482 9.35293C15.5171 8.4902 14.8432 7.81633 13.9805 7.58516C13.6625 7.49998 13.275 7.49998 12.5001 7.49998M11.6667 4.16665L8.3334 0.833313M8.3334 0.833313L5.00007 4.16665M8.3334 0.833313V10.8333" stroke="#B5B0BA" stroke-width="1.66667" stroke-linecap="round" stroke-linejoin="round"/>
</svg>
