<svg width="22" height="20" viewBox="0 0 22 20" fill="none" xmlns="http://www.w3.org/2000/svg">
<path d="M12 5.00024L10.8845 2.76916C10.5634 2.12705 10.4029 1.80597 10.1634 1.57141C9.95158 1.36397 9.69632 1.20622 9.41607 1.10955C9.09916 1.00024 8.74021 1.00024 8.02229 1.00024H4.2C3.0799 1.00024 2.51984 1.00024 2.09202 1.21823C1.71569 1.40998 1.40973 1.71594 1.21799 2.09226C1 2.52009 1 3.08014 1 4.20024V5.00024M1 5.00024H16.2C17.8802 5.00024 18.7202 5.00024 19.362 5.32722C19.9265 5.61484 20.3854 6.07379 20.673 6.63827C21 7.28001 21 8.12009 21 9.80024V14.2002C21 15.8804 21 16.7205 20.673 17.3622C20.3854 17.9267 19.9265 18.3856 19.362 18.6733C18.7202 19.0002 17.8802 19.0002 16.2 19.0002H5.8C4.11984 19.0002 3.27976 19.0002 2.63803 18.6733C2.07354 18.3856 1.6146 17.9267 1.32698 17.3622C1 16.7205 1 15.8804 1 14.2002V5.00024ZM11 15.0002V9.00024M8 12.0002H14" stroke="black" stroke-width="2" stroke-linecap="round" stroke-linejoin="round"/>
</svg>
