<svg width="38" height="38" viewBox="0 0 38 38" fill="none" xmlns="http://www.w3.org/2000/svg">
<g opacity="0.3">
<path d="M19 6C26.1797 6 32 11.8203 32 19C32 26.1797 26.1797 32 19 32C11.8203 32 6 26.1797 6 19C6 11.8203 11.8203 6 19 6Z" stroke="#82798B" stroke-width="2"/>
</g>
<g opacity="0.1">
<path d="M19 1C28.9411 1 37 9.05887 37 19C37 28.9411 28.9411 37 19 37C9.05887 37 1 28.9411 1 19C1 9.05887 9.05887 1 19 1Z" stroke="#82798B" stroke-width="2"/>
</g>
<path d="M19 22.3333V19M19 15.6666H19.0084M27.3334 19C27.3334 23.6023 23.6024 27.3333 19 27.3333C14.3976 27.3333 10.6667 23.6023 10.6667 19C10.6667 14.3976 14.3976 10.6666 19 10.6666C23.6024 10.6666 27.3334 14.3976 27.3334 19Z" stroke="#82798B" stroke-width="1.66667" stroke-linecap="round" stroke-linejoin="round"/>
</svg>
