<svg width="17" height="17" viewBox="0 0 17 17" fill="none" xmlns="http://www.w3.org/2000/svg">
<path d="M5.33301 0.833313H2.16634C1.69963 0.833313 1.46628 0.833313 1.28802 0.924141C1.13121 1.00404 1.00373 1.13152 0.923836 1.28832C0.833008 1.46658 0.833008 1.69994 0.833008 2.16665V5.33331C0.833008 5.80002 0.833008 6.03338 0.923836 6.21164C1.00373 6.36844 1.13121 6.49592 1.28802 6.57582C1.46628 6.66665 1.69963 6.66665 2.16634 6.66665H5.33301C5.79972 6.66665 6.03307 6.66665 6.21133 6.57582C6.36814 6.49592 6.49562 6.36844 6.57551 6.21164C6.66634 6.03338 6.66634 5.80002 6.66634 5.33331V2.16665C6.66634 1.69994 6.66634 1.46658 6.57551 1.28832C6.49562 1.13152 6.36814 1.00404 6.21133 0.924141C6.03307 0.833313 5.79972 0.833313 5.33301 0.833313Z" stroke="#9C94A3" stroke-width="1.66667" stroke-linecap="round" stroke-linejoin="round"/>
<path d="M14.4997 0.833313H11.333C10.8663 0.833313 10.6329 0.833313 10.4547 0.924141C10.2979 1.00404 10.1704 1.13152 10.0905 1.28832C9.99967 1.46658 9.99967 1.69994 9.99967 2.16665V5.33331C9.99967 5.80002 9.99967 6.03338 10.0905 6.21164C10.1704 6.36844 10.2979 6.49592 10.4547 6.57582C10.6329 6.66665 10.8663 6.66665 11.333 6.66665H14.4997C14.9664 6.66665 15.1997 6.66665 15.378 6.57582C15.5348 6.49592 15.6623 6.36844 15.7422 6.21164C15.833 6.03338 15.833 5.80002 15.833 5.33331V2.16665C15.833 1.69994 15.833 1.46658 15.7422 1.28832C15.6623 1.13152 15.5348 1.00404 15.378 0.924141C15.1997 0.833313 14.9664 0.833313 14.4997 0.833313Z" stroke="#9C94A3" stroke-width="1.66667" stroke-linecap="round" stroke-linejoin="round"/>
<path d="M14.4997 9.99998H11.333C10.8663 9.99998 10.6329 9.99998 10.4547 10.0908C10.2979 10.1707 10.1704 10.2982 10.0905 10.455C9.99967 10.6332 9.99967 10.8666 9.99967 11.3333V14.5C9.99967 14.9667 9.99967 15.2 10.0905 15.3783C10.1704 15.5351 10.2979 15.6626 10.4547 15.7425C10.6329 15.8333 10.8663 15.8333 11.333 15.8333H14.4997C14.9664 15.8333 15.1997 15.8333 15.378 15.7425C15.5348 15.6626 15.6623 15.5351 15.7422 15.3783C15.833 15.2 15.833 14.9667 15.833 14.5V11.3333C15.833 10.8666 15.833 10.6332 15.7422 10.455C15.6623 10.2982 15.5348 10.1707 15.378 10.0908C15.1997 9.99998 14.9664 9.99998 14.4997 9.99998Z" stroke="#9C94A3" stroke-width="1.66667" stroke-linecap="round" stroke-linejoin="round"/>
<path d="M5.33301 9.99998H2.16634C1.69963 9.99998 1.46628 9.99998 1.28802 10.0908C1.13121 10.1707 1.00373 10.2982 0.923836 10.455C0.833008 10.6332 0.833008 10.8666 0.833008 11.3333V14.5C0.833008 14.9667 0.833008 15.2 0.923836 15.3783C1.00373 15.5351 1.13121 15.6626 1.28802 15.7425C1.46628 15.8333 1.69963 15.8333 2.16634 15.8333H5.33301C5.79972 15.8333 6.03307 15.8333 6.21133 15.7425C6.36814 15.6626 6.49562 15.5351 6.57551 15.3783C6.66634 15.2 6.66634 14.9667 6.66634 14.5V11.3333C6.66634 10.8666 6.66634 10.6332 6.57551 10.455C6.49562 10.2982 6.36814 10.1707 6.21133 10.0908C6.03307 9.99998 5.79972 9.99998 5.33301 9.99998Z" stroke="#9C94A3" stroke-width="1.66667" stroke-linecap="round" stroke-linejoin="round"/>
</svg>
