<svg width="20" height="20" viewBox="0 0 20 20" fill="none" xmlns="http://www.w3.org/2000/svg">
<g clip-path="url(#clip0_4954_98297)">
<path d="M10 20C15.5228 20 20 15.5228 20 10C20 4.47715 15.5228 0 10 0C4.47715 0 0 4.47715 0 10C0 15.5228 4.47715 20 10 20Z" fill="#6DA544"/>
<path d="M5.65234 11.9561C5.65234 12.6764 6.23633 13.2604 6.95668 13.2604H10.8697C10.8697 13.8607 11.3564 14.3473 11.9567 14.3473H13.261C13.8613 14.3473 14.348 13.8607 14.348 13.2604V11.9561H5.65234Z" fill="#F0F0F0"/>
<path d="M14.4555 5.65234V8.69582C14.4555 9.17531 14.0654 9.56538 13.5859 9.56538V10.8697C14.7846 10.8697 15.7598 9.89448 15.7598 8.69582V5.65234H14.4555Z" fill="#F0F0F0"/>
<path d="M5.10785 8.69582C5.10785 9.17531 4.71777 9.56538 4.23828 9.56538V10.8697C5.43699 10.8697 6.41219 9.89448 6.41219 8.69582V5.65234H5.10785V8.69582Z" fill="#F0F0F0"/>
<path d="M13.8043 5.65234H12.5V8.69582H13.8043V5.65234Z" fill="#F0F0F0"/>
<path d="M10.5427 7.39148C10.5427 7.51137 10.4452 7.60887 10.3253 7.60887C10.2055 7.60887 10.1079 7.51133 10.1079 7.39148V5.65234H8.8036V7.39148C8.8036 7.51137 8.70606 7.60887 8.58621 7.60887C8.46637 7.60887 8.36883 7.51133 8.36883 7.39148V5.65234H7.06445V7.39148C7.06445 8.23058 7.74711 8.91324 8.58621 8.91324C8.90938 8.91324 9.20907 8.81168 9.45579 8.63918C9.70247 8.81164 10.0022 8.91324 10.3254 8.91324C10.3904 8.91324 10.4544 8.90867 10.5174 8.90066C10.4249 9.28148 10.082 9.56539 9.67317 9.56539V10.8697C10.8719 10.8697 11.8471 9.89449 11.8471 8.69582V7.39148V5.65234H10.5427V7.39148H10.5427Z" fill="#F0F0F0"/>
<path d="M9.02098 9.56543H7.06445V10.8698H9.02098V9.56543Z" fill="#F0F0F0"/>
</g>
<defs>
<clipPath id="clip0_4954_98297">
<rect width="20" height="20" fill="white"/>
</clipPath>
</defs>
</svg>
