<svg width="4" height="15" viewBox="0 0 4 15" fill="none" xmlns="http://www.w3.org/2000/svg">
<path d="M1.66732 8.33337C2.12755 8.33337 2.50065 7.96028 2.50065 7.50004C2.50065 7.0398 2.12755 6.66671 1.66732 6.66671C1.20708 6.66671 0.833984 7.0398 0.833984 7.50004C0.833984 7.96028 1.20708 8.33337 1.66732 8.33337Z" stroke="#B5B0BA" stroke-width="1.66667" stroke-linecap="round" stroke-linejoin="round"/>
<path d="M1.66732 2.50004C2.12755 2.50004 2.50065 2.12694 2.50065 1.66671C2.50065 1.20647 2.12755 0.833374 1.66732 0.833374C1.20708 0.833374 0.833984 1.20647 0.833984 1.66671C0.833984 2.12694 1.20708 2.50004 1.66732 2.50004Z" stroke="#B5B0BA" stroke-width="1.66667" stroke-linecap="round" stroke-linejoin="round"/>
<path d="M1.66732 14.1667C2.12755 14.1667 2.50065 13.7936 2.50065 13.3334C2.50065 12.8731 2.12755 12.5 1.66732 12.5C1.20708 12.5 0.833984 12.8731 0.833984 13.3334C0.833984 13.7936 1.20708 14.1667 1.66732 14.1667Z" stroke="#B5B0BA" stroke-width="1.66667" stroke-linecap="round" stroke-linejoin="round"/>
</svg>
