<svg width="25" height="25" viewBox="0 0 25 25" fill="none" xmlns="http://www.w3.org/2000/svg">
<path d="M21.75 12.4167C21.75 17.5713 17.5713 21.75 12.4167 21.75M21.75 12.4167C21.75 7.26201 17.5713 3.08333 12.4167 3.08333M21.75 12.4167H3.08333M12.4167 21.75C7.26201 21.75 3.08333 17.5713 3.08333 12.4167M12.4167 21.75C14.7512 19.1942 16.0785 15.8774 16.1506 12.4167C16.0785 8.9559 14.7512 5.63913 12.4167 3.08333M12.4167 21.75C10.0821 19.1942 8.75607 15.8774 8.68398 12.4167C8.75607 8.9559 10.0821 5.63913 12.4167 3.08333M3.08333 12.4167C3.08333 7.26201 7.26201 3.08333 12.4167 3.08333M5.41667 21.75C5.41667 23.0387 4.372 24.0833 3.08333 24.0833C1.79467 24.0833 0.75 23.0387 0.75 21.75C0.75 20.4613 1.79467 19.4167 3.08333 19.4167C4.372 19.4167 5.41667 20.4613 5.41667 21.75ZM24.0833 21.75C24.0833 23.0387 23.0387 24.0833 21.75 24.0833C20.4613 24.0833 19.4167 23.0387 19.4167 21.75C19.4167 20.4613 20.4613 19.4167 21.75 19.4167C23.0387 19.4167 24.0833 20.4613 24.0833 21.75ZM5.41667 3.08333C5.41667 4.372 4.372 5.41667 3.08333 5.41667C1.79467 5.41667 0.75 4.372 0.75 3.08333C0.75 1.79467 1.79467 0.75 3.08333 0.75C4.372 0.75 5.41667 1.79467 5.41667 3.08333ZM24.0833 3.08333C24.0833 4.372 23.0387 5.41667 21.75 5.41667C20.4613 5.41667 19.4167 4.372 19.4167 3.08333C19.4167 1.79467 20.4613 0.75 21.75 0.75C23.0387 0.75 24.0833 1.79467 24.0833 3.08333Z" stroke="black" stroke-width="1.5" stroke-linecap="round" stroke-linejoin="round"/>
</svg>
