<svg width="14" height="18" viewBox="0 0 14 18" fill="none" xmlns="http://www.w3.org/2000/svg">
<path d="M1 2.76698C1 1.95767 1 1.55302 1.16874 1.32996C1.31575 1.13564 1.54043 1.01539 1.78367 1.00087C2.06286 0.984195 2.39955 1.20865 3.07293 1.65758L11.8359 7.49955C12.3923 7.87049 12.6705 8.05596 12.7675 8.28973C12.8522 8.49411 12.8522 8.7238 12.7675 8.92818C12.6705 9.16195 12.3923 9.34742 11.8359 9.71835L3.07293 15.5603C2.39955 16.0093 2.06286 16.2337 1.78367 16.217C1.54043 16.2025 1.31575 16.0823 1.16874 15.8879C1 15.6649 1 15.2602 1 14.4509V2.76698Z" stroke="black" stroke-width="2" stroke-linecap="round" stroke-linejoin="round"/>
</svg>
