<svg width="35" height="35" viewBox="0 0 35 35" fill="none" xmlns="http://www.w3.org/2000/svg">
<g opacity="0.3">
<path d="M17.4997 4.99966C24.4031 4.99966 29.9995 10.5963 29.9997 17.4997C29.9997 24.4032 24.4032 29.9997 17.4997 29.9997C10.5963 29.9995 4.99966 24.4031 4.99966 17.4997C4.99984 10.5964 10.5964 4.99984 17.4997 4.99966Z" stroke="#7A5CAB" stroke-width="1.66667"/>
</g>
<g opacity="0.1">
<path d="M16.667 0.833008H18.333C27.0775 0.833008 34.167 7.92248 34.167 16.667V18.333C34.167 27.0775 27.0775 34.167 18.333 34.167H16.667C7.92248 34.167 0.833008 27.0775 0.833008 18.333V16.667C0.833008 7.92248 7.92248 0.833008 16.667 0.833008Z" stroke="#7A5CAB" stroke-width="1.66667"/>
</g>
<path d="M17.5 14.1667V17.5M17.5 20.8333H17.5083M25.8333 17.5C25.8333 22.1024 22.1024 25.8333 17.5 25.8333C12.8976 25.8333 9.16666 22.1024 9.16666 17.5C9.16666 12.8976 12.8976 9.16666 17.5 9.16666C22.1024 9.16666 25.8333 12.8976 25.8333 17.5Z" stroke="#7A5CAB" stroke-width="1.66667" stroke-linecap="round" stroke-linejoin="round"/>
</svg>
