<svg width="24" height="27" viewBox="0 0 24 27" fill="none" xmlns="http://www.w3.org/2000/svg">
<path d="M21 14.125V7C21 4.8998 21 3.8497 20.5913 3.04754C20.2317 2.34193 19.6581 1.76825 18.9525 1.40873C18.1503 1 17.1002 1 15 1H7C4.8998 1 3.8497 1 3.04754 1.40873C2.34193 1.76825 1.76825 2.34193 1.40873 3.04754C1 3.8497 1 4.8998 1 7V20C1 22.1002 1 23.1503 1.40873 23.9525C1.76825 24.6581 2.34193 25.2317 3.04754 25.5913C3.8497 26 4.8998 26 7 26H11M13.5 12.25H6M8.5 17.25H6M16 7.25H6M14.125 22.25L16.625 24.75L22.25 19.125" stroke="black" stroke-width="2" stroke-linecap="round" stroke-linejoin="round"/>
</svg>
