<svg width="24" height="23" viewBox="0 0 24 23" fill="none" xmlns="http://www.w3.org/2000/svg">
<path d="M19.1108 9.125L3.94409 9.125M19.1108 9.125L21.1302 12.4908C21.5828 13.2452 21.8091 13.6223 21.9267 14.0283C22.0308 14.3881 22.072 14.7632 22.0484 15.1369C22.0217 15.5588 21.8826 15.976 21.6044 16.8106L21.3793 17.4861C20.9531 18.7646 20.74 19.4039 20.3447 19.8766C19.9957 20.2939 19.5475 20.617 19.0411 20.8162C18.4678 21.0417 17.7939 21.0417 16.4461 21.0417L6.6087 21.0417C5.26096 21.0417 4.58708 21.0417 4.0137 20.8162C3.50737 20.617 3.05913 20.2939 2.7101 19.8766C2.31484 19.4039 2.10174 18.7646 1.67555 17.486L1.4504 16.8106C1.17221 15.976 1.03312 15.5588 1.00647 15.1369C0.982851 14.7632 1.02402 14.3881 1.12816 14.0283C1.24569 13.6223 1.47199 13.2452 1.92459 12.4908L3.94409 9.125M19.1108 9.125L19.5628 7.54285C19.7771 6.79276 19.8843 6.41772 19.8001 6.121C19.7263 5.86108 19.5581 5.63809 19.3285 5.49579C19.0663 5.33333 18.6763 5.33333 17.8962 5.33333L5.15868 5.33333C4.37858 5.33333 3.98853 5.33333 3.72635 5.49579C3.49669 5.63809 3.32849 5.86108 3.25475 6.121C3.17058 6.41772 3.27773 6.79276 3.49204 7.54285L3.94409 9.125M11.5274 5.33333H7.69706C7.13269 5.33333 6.59143 5.10506 6.19236 4.69873C5.79328 4.2924 5.56909 3.7413 5.56909 3.16667C5.56909 2.59203 5.79328 2.04093 6.19236 1.6346C6.59143 1.22827 7.13269 1 7.69706 1C10.6762 1 11.5274 5.33333 11.5274 5.33333ZM11.5274 5.33333H15.3578C15.9221 5.33333 16.4634 5.10506 16.8625 4.69873C17.2616 4.2924 17.4858 3.7413 17.4858 3.16667C17.4858 2.59203 17.2616 2.04093 16.8625 1.6346C16.4634 1.22827 15.9221 1 15.3578 1C12.3786 1 11.5274 5.33333 11.5274 5.33333Z" stroke="#578500" stroke-width="2" stroke-linecap="round" stroke-linejoin="round"/>
</svg>
