<svg width="32" height="32" viewBox="0 0 32 32" fill="none" xmlns="http://www.w3.org/2000/svg">
<path d="M4.01318 14.96V20.9466C4.01318 26.9333 6.41318 29.3333 12.3999 29.3333H19.5865C25.5732 29.3333 27.9732 26.9333 27.9732 20.9466V14.96" stroke="#171717" stroke-width="1.5" stroke-linecap="round" stroke-linejoin="round"/>
<path d="M16 15.9998C18.44 15.9998 20.24 14.0132 20 11.5732L19.12 2.6665H12.8933L12 11.5732C11.76 14.0132 13.56 15.9998 16 15.9998Z" stroke="#171717" stroke-width="1.5" stroke-linecap="round" stroke-linejoin="round"/>
<path d="M24.4136 15.9998C27.1069 15.9998 29.0802 13.8132 28.8136 11.1332L28.4402 7.4665C27.9602 3.99984 26.6269 2.6665 23.1336 2.6665H19.0669L20.0002 12.0132C20.2269 14.2132 22.2136 15.9998 24.4136 15.9998Z" stroke="#171717" stroke-width="1.5" stroke-linecap="round" stroke-linejoin="round"/>
<path d="M7.51984 15.9998C9.71984 15.9998 11.7065 14.2132 11.9198 12.0132L12.2132 9.0665L12.8532 2.6665H8.78651C5.29318 2.6665 3.95984 3.99984 3.47984 7.4665L3.11984 11.1332C2.85318 13.8132 4.82651 15.9998 7.51984 15.9998Z" stroke="#171717" stroke-width="1.5" stroke-linecap="round" stroke-linejoin="round"/>
<path d="M15.9998 22.6665C13.7732 22.6665 12.6665 23.7732 12.6665 25.9998V29.3332H19.3332V25.9998C19.3332 23.7732 18.2265 22.6665 15.9998 22.6665Z" stroke="#171717" stroke-width="1.5" stroke-linecap="round" stroke-linejoin="round"/>
</svg>
