<svg width="100" height="100" viewBox="0 0 100 100" fill="none" xmlns="http://www.w3.org/2000/svg">
<mask id="mask0_26_829" style="mask-type:alpha" maskUnits="userSpaceOnUse" x="0" y="0" width="100" height="100">
<path fill-rule="evenodd" clip-rule="evenodd" d="M100 50C100 77.6142 77.6142 100 50 100C22.3858 100 0 77.6142 0 50C0 22.3858 22.3858 0 50 0C77.6142 0 100 22.3858 100 50ZM12.8341 50.1788C14.8196 47.6976 18.4406 47.2957 20.9218 49.2812L46.2573 69.5549L77.0728 22.6849C78.8186 20.0295 82.5212 19.0621 85.3428 20.5241C88.1643 21.9861 89.0364 25.3239 87.2906 27.9792L52.9188 80.2583C52.7177 80.7324 52.4492 81.1871 52.1116 81.6089C50.1438 84.0681 46.5693 84.4847 44.0903 82.5589C43.6702 82.304 43.2994 82.0049 42.9807 81.6717L13.7317 58.2665C11.2505 56.281 10.8486 52.6601 12.8341 50.1788Z" fill="black" fill-opacity="0.73"/>
</mask>
<g mask="url(#mask0_26_829)">
<rect x="-31.25" y="-18.75" width="159.375" height="143.75" fill="#0CA201"/>
</g>
</svg>
