<svg width="23" height="25" viewBox="0 0 23 25" fill="none" xmlns="http://www.w3.org/2000/svg">
<path d="M16.1062 8.91667V5.41667C16.1062 2.83934 14.0169 0.75 11.4396 0.75C8.86223 0.75 6.77289 2.83934 6.77289 5.41667V8.91666M1.63023 10.494L0.930229 17.9606C0.731199 20.0836 0.631684 21.1451 0.98395 21.965C1.29341 22.6852 1.8357 23.2807 2.52391 23.6561C3.30734 24.0833 4.37349 24.0833 6.50578 24.0833H16.3733C18.5056 24.0833 19.5718 24.0833 20.3552 23.6561C21.0434 23.2807 21.5857 22.6852 21.8952 21.965C22.2474 21.1451 22.1479 20.0836 21.9489 17.9606L21.2489 10.494C21.0808 8.70124 20.9968 7.80488 20.5936 7.12719C20.2385 6.53035 19.7139 6.05263 19.0866 5.75482C18.3742 5.41667 17.4739 5.41667 15.6733 5.41667L7.20578 5.41667C5.4052 5.41667 4.5049 5.41667 3.79255 5.75482C3.16517 6.05263 2.64057 6.53035 2.2855 7.12719C1.88233 7.80487 1.7983 8.70124 1.63023 10.494Z" stroke="black" stroke-width="1.5" stroke-linecap="round" stroke-linejoin="round"/>
</svg>
