<svg width="19" height="19" viewBox="0 0 19 19" fill="none" xmlns="http://www.w3.org/2000/svg">
<path d="M6 6.00012H6.00833M1 3.66679L1 7.39555C1 7.8032 1 8.00703 1.04605 8.19884C1.08688 8.3689 1.15422 8.53148 1.2456 8.6806C1.34867 8.84879 1.4928 8.99292 1.78105 9.28117L8.17157 15.6717C9.16161 16.6617 9.65664 17.1568 10.2275 17.3422C10.7296 17.5054 11.2704 17.5054 11.7725 17.3422C12.3434 17.1568 12.8384 16.6617 13.8284 15.6717L15.6716 13.8285C16.6616 12.8385 17.1566 12.3435 17.3421 11.7727C17.5052 11.2706 17.5052 10.7297 17.3421 10.2276C17.1566 9.65676 16.6616 9.16174 15.6716 8.17169L9.28105 1.78117C8.99279 1.49292 8.84867 1.34879 8.68047 1.24572C8.53135 1.15434 8.36878 1.087 8.19872 1.04617C8.00691 1.00012 7.80308 1.00012 7.39543 1.00012L3.66667 1.00012C2.73325 1.00012 2.26654 1.00012 1.91002 1.18178C1.59641 1.34157 1.34145 1.59653 1.18166 1.91014C1 2.26666 1 2.73337 1 3.66679ZM6.41667 6.00012C6.41667 6.23024 6.23012 6.41679 6 6.41679C5.76988 6.41679 5.58333 6.23024 5.58333 6.00012C5.58333 5.77 5.76988 5.58346 6 5.58346C6.23012 5.58346 6.41667 5.77 6.41667 6.00012Z" stroke="#B5B0BA" stroke-width="2" stroke-linecap="round" stroke-linejoin="round"/>
</svg>
