<svg width="35" height="35" viewBox="0 0 35 35" fill="none" xmlns="http://www.w3.org/2000/svg">
<g opacity="0.3">
<path d="M17.4997 4.99963C24.4031 4.99963 29.9995 10.5962 29.9997 17.4996C29.9997 24.4032 24.4033 29.9996 17.4997 29.9996C10.5963 29.9995 4.99969 24.4031 4.99969 17.4996C4.99987 10.5963 10.5964 4.99981 17.4997 4.99963Z" stroke="#079455" stroke-width="1.66667"/>
</g>
<g opacity="0.1">
<rect x="0.833333" y="0.833333" width="33.3333" height="33.3333" rx="16.6667" stroke="#079455" stroke-width="1.66667"/>
</g>
<path d="M13.75 17.5L16.25 20L21.25 15M25.8334 17.5C25.8334 22.1023 22.1024 25.8333 17.5 25.8333C12.8976 25.8333 9.16669 22.1023 9.16669 17.5C9.16669 12.8976 12.8976 9.16663 17.5 9.16663C22.1024 9.16663 25.8334 12.8976 25.8334 17.5Z" stroke="#079455" stroke-width="1.66667" stroke-linecap="round" stroke-linejoin="round"/>
</svg>
