<svg width="19" height="18" viewBox="0 0 19 18" fill="none" xmlns="http://www.w3.org/2000/svg">
<path d="M8.33496 10.835H5.83496C4.28182 10.835 3.50525 10.835 2.89268 11.0888C2.07592 11.4271 1.42701 12.076 1.0887 12.8927C0.834961 13.5053 0.834961 14.2819 0.834961 15.835M12.085 1.07732C13.3066 1.57181 14.1683 2.76945 14.1683 4.16836M9.16819 16.2517L10.8558 15.9142C11.0029 15.8848 11.0765 15.8701 11.1451 15.8431C11.206 15.8193 11.2638 15.7883 11.3175 15.7509C11.3779 15.7087 11.431 15.6557 11.5371 15.5496L17.085 10.0017C17.5453 9.54147 17.5452 8.79524 17.085 8.335C16.6247 7.87477 15.8785 7.87478 15.4183 8.33502L9.87039 13.8829C9.7643 13.989 9.71125 14.0421 9.6691 14.1025C9.63169 14.1561 9.60072 14.214 9.57683 14.2749C9.54992 14.3435 9.53521 14.417 9.50578 14.5642L9.16819 16.2517ZM10.4183 4.16836C10.4183 6.0093 8.92591 7.50169 7.08496 7.50169C5.24401 7.50169 3.75163 6.0093 3.75163 4.16836C3.75163 2.32741 5.24401 0.835022 7.08496 0.835022C8.92591 0.835022 10.4183 2.32741 10.4183 4.16836Z" stroke="#B5B0BA" stroke-width="1.67" stroke-linecap="round" stroke-linejoin="round"/>
</svg>
