<svg width="38" height="38" viewBox="0 0 38 38" fill="none" xmlns="http://www.w3.org/2000/svg">
<path opacity="0.1" d="M19 0.834961C29.0323 0.834961 37.165 8.96775 37.165 19C37.165 29.0323 29.0323 37.165 19 37.165C8.96775 37.165 0.834961 29.0323 0.834961 19C0.834961 8.96775 8.96775 0.834961 19 0.834961Z" stroke="#DC6803" stroke-width="1.67"/>
<circle opacity="0.3" cx="19" cy="19" r="13.165" stroke="#DC6803" stroke-width="1.67"/>
<path d="M18.7972 16.4201V19.7534M18.7972 23.0868H18.8058M17.6104 12.1632L10.5605 24.0021C10.1694 24.6587 9.9739 24.9871 10.0028 25.2565C10.028 25.4916 10.1547 25.7051 10.3513 25.8441C10.5766 26.0034 10.9669 26.0034 11.7473 26.0034H25.8471C26.6276 26.0034 27.0178 26.0034 27.2432 25.8441C27.4398 25.7051 27.5664 25.4916 27.5916 25.2565C27.6205 24.9871 27.425 24.6587 27.034 24.0021L19.9841 12.1632C19.5945 11.5089 19.3996 11.1818 19.1455 11.0719C18.9238 10.976 18.6707 10.976 18.449 11.0719C18.1948 11.1818 18 11.5089 17.6104 12.1632Z" stroke="#DC6803" stroke-width="1.66667" stroke-linecap="round" stroke-linejoin="round"/>
</svg>
