<svg width="20" height="20" viewBox="0 0 20 20" fill="none" xmlns="http://www.w3.org/2000/svg">
<path d="M7.79642 17.5C8.38403 18.0186 9.15591 18.3333 10.0013 18.3333C10.8466 18.3333 11.6185 18.0186 12.2061 17.5M15.0013 6.66667C15.0013 5.34059 14.4745 4.06882 13.5368 3.13114C12.5991 2.19346 11.3274 1.66667 10.0013 1.66667C8.6752 1.66667 7.40343 2.19346 6.46574 3.13114C5.52806 4.06882 5.00128 5.34059 5.00128 6.66667C5.00128 9.24183 4.35167 11.005 3.626 12.1712C3.01388 13.1549 2.70783 13.6468 2.71905 13.784C2.73147 13.9359 2.76366 13.9938 2.88609 14.0847C2.99666 14.1667 3.4951 14.1667 4.49199 14.1667H15.5106C16.5075 14.1667 17.0059 14.1667 17.1165 14.0847C17.2389 13.9938 17.2711 13.9359 17.2835 13.784C17.2947 13.6468 16.9887 13.1549 16.3766 12.1712C15.6509 11.005 15.0013 9.24183 15.0013 6.66667Z" stroke="#696170" stroke-width="1.66667" stroke-linecap="round" stroke-linejoin="round"/>
</svg>
