<svg width="53" height="59" viewBox="0 0 53 59" fill="none" xmlns="http://www.w3.org/2000/svg">
<path d="M43.1662 29.2779C43.1662 25.4426 40.0571 22.3335 36.2218 22.3335C32.3865 22.3335 29.2773 25.4426 29.2773 29.2779" stroke="#B5B0BA" stroke-width="3" stroke-linecap="round"/>
<path d="M9.83398 4.27802V29.278M16.7784 2.88913V16.778M23.7229 1.50024V16.778" stroke="#B5B0BA" stroke-width="3" stroke-linecap="round" stroke-linejoin="round"/>
<path d="M4.27734 8.44469L9.8329 7.57663M48.7218 1.50024L30.6662 4.32142M4.27734 15.3891L9.8329 15.0419M48.7218 12.6114L30.6662 13.7398" stroke="#B5B0BA" stroke-width="3" stroke-linecap="round" stroke-linejoin="round"/>
<path d="M6.80957 29.2778H46.1904C50.6429 29.2778 52.274 30.3076 51.1631 34.7837C49.2035 42.6794 43.6554 44.6406 38.529 49.7943C37.283 51.047 39.2216 52.8979 39.2227 54.2757C39.2248 56.8696 36.7579 57.0556 34.7928 57.0556H18.2072C16.2421 57.0556 13.7752 56.8696 13.7773 54.2757C13.7783 52.9269 15.6589 50.9885 14.471 49.7943C9.34465 44.6406 3.79651 42.6794 1.8369 34.7837C0.725989 30.3076 2.35713 29.2778 6.80957 29.2778Z" stroke="#B5B0BA" stroke-width="3" stroke-linejoin="round"/>
</svg>
